<mxfile host="app.diagrams.net" modified="2021-05-30T05:46:54.412Z" agent="5.0 (Windows NT 10.0; Win64; x64) AppleWebKit/537.36 (KHTML, like Gecko) Chrome/90.0.4430.212 Safari/537.36" etag="AbcTl0i9ls_m3bAWAWfU" version="14.7.3" type="github">
  <diagram id="q4KeziVVks7lWcbCtezH" name="Page-1">
    <mxGraphModel dx="1718" dy="962" grid="1" gridSize="10" guides="1" tooltips="1" connect="1" arrows="1" fold="1" page="1" pageScale="1" pageWidth="1169" pageHeight="827" math="0" shadow="0">
      <root>
        <mxCell id="0" />
        <mxCell id="1" parent="0" />
        <mxCell id="NYb0u8Sw0OUqS86-CbN8-1" value="&lt;span style=&quot;background-color: rgb(255 , 255 , 255)&quot;&gt;Admin&lt;br&gt;[Logged In]&lt;br&gt;&lt;/span&gt;" style="shape=umlLifeline;participant=umlActor;perimeter=lifelinePerimeter;whiteSpace=wrap;html=1;container=1;collapsible=0;recursiveResize=0;verticalAlign=top;spacingTop=36;outlineConnect=0;" vertex="1" parent="1">
          <mxGeometry x="60" y="30" width="20" height="550" as="geometry" />
        </mxCell>
        <mxCell id="NYb0u8Sw0OUqS86-CbN8-2" value="&lt;span style=&quot;background-color: rgb(255 , 255 , 255)&quot;&gt;Admin Home&lt;/span&gt;" style="shape=umlLifeline;participant=umlBoundary;perimeter=lifelinePerimeter;whiteSpace=wrap;html=1;container=1;collapsible=0;recursiveResize=0;verticalAlign=top;spacingTop=36;outlineConnect=0;" vertex="1" parent="1">
          <mxGeometry x="170" y="30" width="50" height="300" as="geometry" />
        </mxCell>
        <mxCell id="NYb0u8Sw0OUqS86-CbN8-3" value="&lt;span style=&quot;background-color: rgb(255 , 255 , 255)&quot;&gt;React Frontend&lt;/span&gt;" style="shape=umlLifeline;participant=umlControl;perimeter=lifelinePerimeter;whiteSpace=wrap;html=1;container=1;collapsible=0;recursiveResize=0;verticalAlign=top;spacingTop=36;outlineConnect=0;" vertex="1" parent="1">
          <mxGeometry x="300" y="30" width="40" height="300" as="geometry" />
        </mxCell>
        <mxCell id="NYb0u8Sw0OUqS86-CbN8-4" value="&lt;span style=&quot;background-color: rgb(255 , 255 , 255)&quot;&gt;Koa Backend&lt;/span&gt;" style="shape=umlLifeline;participant=umlControl;perimeter=lifelinePerimeter;whiteSpace=wrap;html=1;container=1;collapsible=0;recursiveResize=0;verticalAlign=top;spacingTop=36;outlineConnect=0;" vertex="1" parent="1">
          <mxGeometry x="470" y="30" width="40" height="300" as="geometry" />
        </mxCell>
        <mxCell id="NYb0u8Sw0OUqS86-CbN8-5" value="" style="html=1;points=[];perimeter=orthogonalPerimeter;" vertex="1" parent="1">
          <mxGeometry x="65" y="140" width="10" height="80" as="geometry" />
        </mxCell>
        <mxCell id="NYb0u8Sw0OUqS86-CbN8-6" value="" style="endArrow=open;html=1;endFill=0;" edge="1" parent="1">
          <mxGeometry width="50" height="50" relative="1" as="geometry">
            <mxPoint x="75" y="150" as="sourcePoint" />
            <mxPoint x="185" y="150" as="targetPoint" />
          </mxGeometry>
        </mxCell>
        <mxCell id="NYb0u8Sw0OUqS86-CbN8-7" value="" style="html=1;points=[];perimeter=orthogonalPerimeter;" vertex="1" parent="1">
          <mxGeometry x="190" y="140" width="10" height="80" as="geometry" />
        </mxCell>
        <mxCell id="NYb0u8Sw0OUqS86-CbN8-8" value="addEditor" style="text;html=1;align=center;verticalAlign=middle;resizable=0;points=[];autosize=1;strokeColor=none;" vertex="1" parent="1">
          <mxGeometry x="90" y="130" width="70" height="20" as="geometry" />
        </mxCell>
        <mxCell id="NYb0u8Sw0OUqS86-CbN8-9" value="" style="endArrow=open;html=1;endFill=0;" edge="1" parent="1">
          <mxGeometry width="50" height="50" relative="1" as="geometry">
            <mxPoint x="200" y="160" as="sourcePoint" />
            <mxPoint x="310" y="160" as="targetPoint" />
          </mxGeometry>
        </mxCell>
        <mxCell id="NYb0u8Sw0OUqS86-CbN8-10" value="" style="html=1;points=[];perimeter=orthogonalPerimeter;" vertex="1" parent="1">
          <mxGeometry x="315" y="140" width="10" height="80" as="geometry" />
        </mxCell>
        <mxCell id="NYb0u8Sw0OUqS86-CbN8-11" value="addMember(details)" style="text;html=1;align=center;verticalAlign=middle;resizable=0;points=[];autosize=1;strokeColor=none;" vertex="1" parent="1">
          <mxGeometry x="200" y="140" width="120" height="20" as="geometry" />
        </mxCell>
        <mxCell id="NYb0u8Sw0OUqS86-CbN8-12" value="" style="endArrow=open;html=1;endFill=0;" edge="1" parent="1">
          <mxGeometry width="50" height="50" relative="1" as="geometry">
            <mxPoint x="325" y="170" as="sourcePoint" />
            <mxPoint x="480" y="170" as="targetPoint" />
          </mxGeometry>
        </mxCell>
        <mxCell id="NYb0u8Sw0OUqS86-CbN8-13" value="" style="html=1;points=[];perimeter=orthogonalPerimeter;" vertex="1" parent="1">
          <mxGeometry x="485" y="140" width="10" height="80" as="geometry" />
        </mxCell>
        <mxCell id="NYb0u8Sw0OUqS86-CbN8-14" value="PUT /register/:uid" style="text;html=1;align=center;verticalAlign=middle;resizable=0;points=[];autosize=1;strokeColor=none;" vertex="1" parent="1">
          <mxGeometry x="350" y="150" width="110" height="20" as="geometry" />
        </mxCell>
        <mxCell id="NYb0u8Sw0OUqS86-CbN8-15" value="&lt;span style=&quot;background-color: rgb(255 , 255 , 255)&quot;&gt;conferencedb&lt;br&gt;:mongodb&lt;/span&gt;" style="shape=umlLifeline;participant=umlEntity;perimeter=lifelinePerimeter;whiteSpace=wrap;html=1;container=1;collapsible=0;recursiveResize=0;verticalAlign=top;spacingTop=36;outlineConnect=0;" vertex="1" parent="1">
          <mxGeometry x="650" y="30" width="40" height="300" as="geometry" />
        </mxCell>
        <mxCell id="NYb0u8Sw0OUqS86-CbN8-16" value="" style="html=1;points=[];perimeter=orthogonalPerimeter;" vertex="1" parent="1">
          <mxGeometry x="665" y="150" width="10" height="80" as="geometry" />
        </mxCell>
        <mxCell id="NYb0u8Sw0OUqS86-CbN8-17" value="" style="endArrow=open;html=1;endFill=0;" edge="1" parent="1">
          <mxGeometry width="50" height="50" relative="1" as="geometry">
            <mxPoint x="495" y="179.58" as="sourcePoint" />
            <mxPoint x="650" y="179.58" as="targetPoint" />
          </mxGeometry>
        </mxCell>
        <mxCell id="NYb0u8Sw0OUqS86-CbN8-18" value="saveDocument()" style="text;html=1;align=center;verticalAlign=middle;resizable=0;points=[];autosize=1;strokeColor=none;" vertex="1" parent="1">
          <mxGeometry x="520" y="160" width="100" height="20" as="geometry" />
        </mxCell>
      </root>
    </mxGraphModel>
  </diagram>
</mxfile>
